{
  "accessors": [
    {
      "bufferView": 2,
      "componentType": 5126,
      "count": 2774,
      "max": [
        0.060790475457906723,
        0.060783352702856064,
        0.20978546142578125
      ],
      "min": [
        -0.060790475457906723,
        -0.060783352702856064,
        0
      ],
      "type": "VEC3"
    },
    {
      "bufferView": 2,
      "byteOffset": 33288,
      "componentType": 5126,
      "count": 2774,
      "max": [
        1,
        1,
        1
      ],
      "min": [
        -1,
        -1,
        -1
      ],
      "type": "VEC3"
    },
    {
      "bufferView": 1,
      "componentType": 5126,
      "count": 2774,
      "max": [
        0.99233424663543701,
        0.82616400718688965
      ],
      "min": [
        0.004999999888241291,
        0.48992761969566345
      ],
      "type": "VEC2"
    },
    {
      "bufferView": 0,
      "componentType": 5125,
      "count": 15768,
      "max": [
        2773
      ],
      "min": [
        0
      ],
      "type": "SCALAR"
    },
    {
      "bufferView": 2,
      "byteOffset": 66576,
      "componentType": 5126,
      "count": 672,
      "max": [
        0.060819000005722046,
        0.060811877250671387,
        0.20323839783668518
      ],
      "min": [
        -0.060819003731012344,
        -0.060811877250671387,
        0.016557693481445312
      ],
      "type": "VEC3"
    },
    {
      "bufferView": 2,
      "byteOffset": 74640,
      "componentType": 5126,
      "count": 672,
      "max": [
        1,
        1,
        0.44330024719238281
      ],
      "min": [
        -1,
        -1,
        -0.89633810520172119
      ],
      "type": "VEC3"
    },
    {
      "bufferView": 1,
      "byteOffset": 22192,
      "componentType": 5126,
      "count": 672,
      "max": [
        0.99500000476837158,
        0.48131921887397766
      ],
      "min": [
        0.0050000143237411976,
        0.004999999888241291
      ],
      "type": "VEC2"
    },
    {
      "bufferView": 0,
      "byteOffset": 63072,
      "componentType": 5125,
      "count": 3456,
      "max": [
        671
      ],
      "min": [
        0
      ],
      "type": "SCALAR"
    }
  ],
  "asset": {
    "extras": {
      "author": "binrong (https://sketchfab.com/binrong)",
      "license": "CC-BY-NC-4.0 (http://creativecommons.org/licenses/by-nc/4.0/)",
      "source": "https://sketchfab.com/3d-models/day13-fizzy-drink-7daf996679c64815b48f650d1b3ff82d",
      "title": "DAY13: FIZZY DRINK"
    },
    "generator": "Sketchfab-9.85.0",
    "version": "2.0"
  },
  "bufferViews": [
    {
      "buffer": 0,
      "byteLength": 76896,
      "byteOffset": 0,
      "name": "floatBufferViews",
      "target": 34963
    },
    {
      "buffer": 0,
      "byteLength": 27568,
      "byteOffset": 76896,
      "byteStride": 8,
      "name": "floatBufferViews",
      "target": 34962
    },
    {
      "buffer": 0,
      "byteLength": 82704,
      "byteOffset": 104464,
      "byteStride": 12,
      "name": "floatBufferViews",
      "target": 34962
    }
  ],
  "buffers": [
    {
      "byteLength": 187168,
      "uri": "scene.bin"
    }
  ],
  "images": [
    {
      "uri": "textures/tin_M_baseColor.png"
    }
  ],
  "materials": [
    {
      "doubleSided": true,
      "emissiveFactor": [
        0,
        0,
        0
      ],
      "name": "coure",
      "pbrMetallicRoughness": {
        "baseColorFactor": [
          1,
          1,
          1,
          1
        ],
        "metallicFactor": 1,
        "roughnessFactor": 0.16177823349999998
      }
    },
    {
      "doubleSided": true,
      "emissiveFactor": [
        0,
        0,
        0
      ],
      "name": "tin_M",
      "pbrMetallicRoughness": {
        "baseColorFactor": [
          1,
          1,
          1,
          1
        ],
        "baseColorTexture": {
          "index": 0,
          "texCoord": 0
        },
        "metallicFactor": 0,
        "roughnessFactor": 0.063984102299999956
      }
    }
  ],
  "meshes": [
    {
      "name": "tin_high_coure_0",
      "primitives": [
        {
          "attributes": {
            "NORMAL": 1,
            "POSITION": 0,
            "TEXCOORD_0": 2
          },
          "indices": 3,
          "material": 0,
          "mode": 4
        }
      ]
    },
    {
      "name": "tin_high_tin_M_0",
      "primitives": [
        {
          "attributes": {
            "NORMAL": 5,
            "POSITION": 4,
            "TEXCOORD_0": 6
          },
          "indices": 7,
          "material": 1,
          "mode": 4
        }
      ]
    }
  ],
  "nodes": [
    {
      "children": [
        1
      ],
      "name": "RootNode (gltf orientation matrix)",
      "rotation": [
        -0.70710678118654746,
        -0,
        -0,
        0.70710678118654757
      ]
    },
    {
      "children": [
        2
      ],
      "matrix": [
        0.99998563528060913,
        -0.00066535599762573838,
        -0.0053178290836513042,
        0,
        -0.00066534662619233131,
        -0.9999997615814209,
        3.5383000067668036e-06,
        0,
        -0.0053178300149738789,
        0,
        -0.99998587369918823,
        0,
        -0.055911198258399963,
        -0.00014678569277748466,
        -20.978385925292969,
        1
      ],
      "name": "RootNode (model correction matrix)"
    },
    {
      "children": [
        3
      ],
      "matrix": [
        1,
        0,
        0,
        0,
        0,
        -1,
        0,
        0,
        0,
        0,
        -1,
        0,
        0,
        0,
        0,
        1
      ],
      "name": "FIZZY_DRINK.FBX"
    },
    {
      "children": [
        4
      ],
      "name": "RootNode"
    },
    {
      "children": [
        5,
        6
      ],
      "matrix": [
        -70.710666197725018,
        70.710690039582502,
        0,
        0,
        -70.710690039582502,
        -70.710666197725018,
        0,
        0,
        0,
        0,
        100,
        0,
        0,
        0,
        0,
        1
      ],
      "name": "tin_high"
    },
    {
      "mesh": 0,
      "name": "tin_high_coure_0"
    },
    {
      "mesh": 1,
      "name": "tin_high_tin_M_0"
    }
  ],
  "samplers": [
    {
      "magFilter": 9729,
      "minFilter": 9987,
      "wrapS": 10497,
      "wrapT": 10497
    }
  ],
  "scene": 0,
  "scenes": [
    {
      "name": "OSG_Scene",
      "nodes": [
        0
      ]
    }
  ],
  "textures": [
    {
      "sampler": 0,
      "source": 0
    }
  ]
}

